<?xml version="1.0" encoding="utf-8"?>
<!-- Generator: Adobe Illustrator 21.0.2, SVG Export Plug-In . SVG Version: 6.00 Build 0)  -->
<svg version="1.1" id="Layer_1" xmlns="http://www.w3.org/2000/svg" xmlns:xlink="http://www.w3.org/1999/xlink" x="0px" y="0px"
	 viewBox="0 0 500 305" style="enable-background:new 0 0 500 305;" xml:space="preserve">
<style type="text/css">
	svg{background-color:#22272E;}
	.st0{filter:url(#Adobe_OpacityMaskFilter);}
	.st1{fill:url(#SVGID_2_);}
	.st2{mask:url(#SVGID_1_);}
	.st3{fill:#3FA9F5;stroke:#D1D1D1;stroke-width:2;stroke-miterlimit:10;}
	.st4{fill:#ED1E79;stroke:#D1D1D1;stroke-width:2;stroke-miterlimit:10;}
	.st5{fill:none;stroke:#D1D1D1;stroke-width:2;stroke-miterlimit:10;}
	.st6{fill:#D1D1D1;}
	.st7{opacity:0.4;fill:none;stroke:#D1D1D1;stroke-width:2;stroke-miterlimit:10;enable-background:new    ;}
	.st8{fill:#8CC63F;stroke:#D1D1D1;stroke-width:2;stroke-miterlimit:10;}
	.st9{opacity:0.5;}
	.st10{opacity:0.1;fill:none;stroke:#D1D1D1;stroke-width:2;stroke-miterlimit:10;enable-background:new    ;}
	.st11{fill:#FFFFFF;}
	.st12{font-family:'Avenir-Book';}
	.st13{font-size:18px;}
</style>
<defs>
	<filter id="Adobe_OpacityMaskFilter" filterUnits="userSpaceOnUse" x="39" y="53.8" width="422" height="302.2">
		
			<feColorMatrix  type="matrix" values="-1 0 0 0 1  0 -1 0 0 1  0 0 -1 0 1  0 0 0 1 0" color-interpolation-filters="sRGB" result="source"/>
	</filter>
</defs>
<mask maskUnits="userSpaceOnUse" x="39" y="53.8" width="422" height="302.2" id="SVGID_1_">
	<g class="st0">
		
			<linearGradient id="SVGID_2_" gradientUnits="userSpaceOnUse" x1="82.5" y1="62.25" x2="302.5" y2="62.25" gradientTransform="matrix(8.979319e-11 1 -1 8.979319e-11 312.25 -7.75)">
			<stop  offset="2.000000e-02" style="stop-color:#FFFFFF"/>
			<stop  offset="0.1" style="stop-color:#000000"/>
			<stop  offset="0.9" style="stop-color:#000000"/>
			<stop  offset="0.98" style="stop-color:#FFFFFF"/>
		</linearGradient>
		<polygon class="st1" points="510,294.8 510,74.8 -10,74.8 -10,294.8 		"/>
	</g>
</mask>
<g class="st2">
	<g>
		<rect x="40" y="144.8" class="st3" width="40" height="79.2"/>
		<rect x="180" y="104" class="st4" width="40" height="160"/>
		<g>
			<g>
				<line class="st5" x1="80" y1="204" x2="111.1" y2="204"/>
				<g>
					<polygon class="st6" points="109.2,206.9 120,204 109.2,201.1 					"/>
				</g>
			</g>
		</g>
		<g>
			<g>
				<line class="st5" x1="140" y1="164" x2="171.1" y2="164"/>
				<g>
					<polygon class="st6" points="169.2,166.9 180,164 169.2,161.1 					"/>
				</g>
			</g>
		</g>
		<g>
			<g>
				<line class="st5" x1="140" y1="125" x2="171.1" y2="125"/>
				<g>
					<polygon class="st6" points="169.2,127.9 180,125 169.2,122.1 					"/>
				</g>
			</g>
		</g>
		<g>
			<g>
				<line class="st5" x1="140" y1="204" x2="171.1" y2="204"/>
				<g>
					<polygon class="st6" points="169.2,206.9 180,204 169.2,201.1 					"/>
				</g>
			</g>
		</g>
		<g>
			<g>
				<line class="st5" x1="140" y1="244" x2="171.1" y2="244"/>
				<g>
					<polygon class="st6" points="169.2,246.9 180,244 169.2,241.1 					"/>
				</g>
			</g>
		</g>
		<line class="st7" x1="40" y1="104" x2="220" y2="104"/>
		<line class="st7" x1="40" y1="144" x2="220" y2="144"/>
		<line class="st7" x1="40" y1="184" x2="220" y2="184"/>
		<line class="st7" x1="40" y1="224" x2="220" y2="224"/>
		<line class="st7" x1="40" y1="264" x2="220" y2="264"/>
		<rect x="120" y="55" class="st8" width="20" height="300"/>
	</g>
	<g>
		<rect x="280" y="144.8" class="st3" width="40" height="80"/>
		<rect x="420" y="104.8" class="st4" width="40" height="40"/>
		<rect x="420" y="224.8" class="st4" width="40" height="40"/>
		<g class="st9">
			<rect x="420" y="145" class="st4" width="40" height="79.8"/>
			<g>
				<g>
					<polyline class="st5" points="400,244.8 400,164.8 411.1,164.8 					"/>
					<g>
						<polygon class="st6" points="409.2,167.7 420,164.8 409.2,161.8 						"/>
					</g>
				</g>
			</g>
			<g>
				<g>
					<line class="st5" x1="400" y1="204.8" x2="411.1" y2="204.8"/>
					<g>
						<polygon class="st6" points="409.2,207.7 420,204.8 409.2,201.8 						"/>
					</g>
				</g>
			</g>
		</g>
		<g>
			<g>
				<line class="st5" x1="320" y1="204.8" x2="351.1" y2="204.8"/>
				<g>
					<polygon class="st6" points="349.2,207.7 360,204.8 349.2,201.8 					"/>
				</g>
			</g>
		</g>
		<g>
			<g>
				<line class="st5" x1="380" y1="124.8" x2="411.1" y2="124.8"/>
				<g>
					<polygon class="st6" points="409.2,127.7 420,124.8 409.2,121.8 					"/>
				</g>
			</g>
		</g>
		<g>
			<g>
				<line class="st5" x1="380" y1="244.8" x2="411.1" y2="244.8"/>
				<g>
					<polygon class="st6" points="409.2,247.7 420,244.8 409.2,241.8 					"/>
				</g>
			</g>
		</g>
		<line class="st7" x1="280" y1="104.8" x2="460" y2="104.8"/>
		<line class="st7" x1="280" y1="264.8" x2="460" y2="264.8"/>
		<line class="st10" x1="280" y1="184.8" x2="460" y2="184.8"/>
		<line class="st7" x1="280" y1="144.8" x2="460" y2="144.8"/>
		<line class="st7" x1="280" y1="224.8" x2="460" y2="224.8"/>
		<rect x="360" y="54.8" class="st8" width="20" height="300"/>
	</g>
</g>
<g>
	<path class="st11" d="M68.1,27.3c-0.3,0.4-0.6,0.8-1.1,1.2c-0.4,0.4-0.9,0.7-1.5,1s-1.1,0.5-1.8,0.7c-0.6,0.2-1.3,0.2-2,0.2
		c-1.3,0-2.4-0.2-3.5-0.7c-1.1-0.4-2-1.1-2.8-1.9s-1.4-1.7-1.9-2.8c-0.4-1.1-0.7-2.3-0.7-3.6s0.2-2.5,0.7-3.6c0.4-1.1,1.1-2,1.9-2.8
		s1.7-1.4,2.8-1.9c1.1-0.4,2.3-0.7,3.5-0.7c1.1,0,2.1,0.2,3.2,0.6c1.1,0.4,2,1.1,2.7,2.1l-1.5,1.1c-0.2-0.3-0.4-0.5-0.7-0.8
		c-0.3-0.3-0.7-0.5-1-0.7c-0.4-0.2-0.8-0.4-1.3-0.5c-0.4-0.1-0.9-0.2-1.3-0.2c-1.1,0-2.1,0.2-2.9,0.6c-0.9,0.4-1.6,0.9-2.2,1.6
		c-0.6,0.7-1.1,1.5-1.4,2.3c-0.3,0.9-0.5,1.8-0.5,2.8c0,1,0.2,1.9,0.5,2.8c0.3,0.9,0.8,1.7,1.4,2.3c0.6,0.7,1.3,1.2,2.2,1.6
		c0.9,0.4,1.8,0.6,2.9,0.6c0.4,0,0.9,0,1.3-0.1s0.9-0.2,1.3-0.4c0.4-0.2,0.8-0.5,1.2-0.8c0.4-0.3,0.7-0.7,1-1.2L68.1,27.3z"/>
	<path class="st11" d="M74.6,28.1l3.4-9.3h1.9l-5.6,14.2C74,33.8,73.5,34.5,73,35c-0.5,0.5-1.3,0.8-2.2,0.8c-0.2,0-0.5,0-0.7,0
		s-0.5-0.1-0.7-0.1l0.2-1.5c0.3,0.2,0.7,0.3,1.2,0.3c0.6,0,1-0.2,1.3-0.5c0.3-0.4,0.6-0.8,0.8-1.5l0.8-2.2L69,18.8h2L74.6,28.1z"/>
	<path class="st11" d="M90.1,21.4c-0.3-0.4-0.7-0.8-1.1-1.1c-0.5-0.3-1-0.4-1.7-0.4c-0.7,0-1.2,0.1-1.8,0.3c-0.5,0.2-1,0.5-1.3,0.9
		c-0.4,0.4-0.6,0.9-0.8,1.4c-0.2,0.6-0.3,1.1-0.3,1.8c0,0.6,0.1,1.2,0.3,1.8c0.2,0.6,0.5,1,0.8,1.4s0.8,0.7,1.3,0.9s1.1,0.3,1.8,0.3
		c0.6,0,1.2-0.1,1.7-0.4c0.5-0.3,0.9-0.6,1.1-1.1l1.3,1c-0.6,0.7-1.2,1.1-1.9,1.5s-1.4,0.5-2.2,0.5c-0.9,0-1.7-0.1-2.5-0.4
		s-1.4-0.7-1.9-1.2c-0.5-0.5-0.9-1.2-1.2-1.9c-0.3-0.7-0.4-1.5-0.4-2.4c0-0.8,0.1-1.6,0.4-2.4c0.3-0.7,0.7-1.4,1.2-1.9
		c0.5-0.5,1.1-0.9,1.9-1.2c0.7-0.3,1.6-0.4,2.5-0.4c0.8,0,1.5,0.2,2.2,0.5s1.3,0.8,1.9,1.5L90.1,21.4z"/>
	<path class="st11" d="M95.5,30h-1.6V11.9h1.6V30z"/>
	<path class="st11" d="M100.4,24.8c0,0.6,0.2,1.1,0.4,1.6c0.2,0.5,0.5,0.9,0.9,1.3s0.8,0.6,1.3,0.9s1,0.3,1.6,0.3
		c0.8,0,1.6-0.2,2.2-0.6c0.6-0.4,1.1-0.8,1.4-1.4l1.2,1c-0.7,0.8-1.4,1.5-2.2,1.8c-0.8,0.4-1.7,0.6-2.6,0.6c-0.8,0-1.6-0.1-2.3-0.4
		c-0.7-0.3-1.3-0.7-1.8-1.2c-0.5-0.5-0.9-1.2-1.2-1.9c-0.3-0.7-0.4-1.5-0.4-2.4c0-0.8,0.1-1.6,0.4-2.4c0.3-0.7,0.7-1.3,1.2-1.9
		c0.5-0.5,1.1-0.9,1.8-1.2c0.7-0.3,1.4-0.4,2.2-0.4c0.8,0,1.6,0.2,2.3,0.5c0.7,0.3,1.2,0.7,1.7,1.2s0.8,1.1,1,1.8
		c0.2,0.7,0.4,1.4,0.4,2.2v0.7L100.4,24.8L100.4,24.8z M108,23.5c0-1.1-0.3-1.9-1-2.6c-0.6-0.7-1.5-1-2.7-1c-0.5,0-1,0.1-1.5,0.3
		s-0.9,0.5-1.3,0.8c-0.4,0.3-0.6,0.7-0.9,1.2c-0.2,0.4-0.3,0.9-0.3,1.3C100.4,23.5,108,23.5,108,23.5z"/>
	<path class="st11" d="M126.5,23.1v-0.3c0-1.9-1-2.9-2.9-2.9c-1.3,0-2.5,0.4-3.4,1.3l-1-1.1c1.1-1.1,2.6-1.6,4.8-1.6
		c0.5,0,1.1,0.1,1.6,0.2c0.5,0.2,0.9,0.4,1.3,0.7c0.4,0.3,0.7,0.7,0.9,1.2c0.2,0.5,0.3,1.1,0.3,1.8v5c0,0.4,0,0.9,0.1,1.4
		c0,0.5,0.1,0.9,0.1,1.2h-1.5c0-0.3-0.1-0.6-0.1-0.9c0-0.3,0-0.6,0-0.9h0c-0.5,0.8-1,1.3-1.6,1.6c-0.6,0.3-1.4,0.5-2.3,0.5
		c-0.5,0-1-0.1-1.4-0.2c-0.5-0.1-0.9-0.3-1.2-0.6c-0.4-0.3-0.6-0.6-0.9-1c-0.2-0.4-0.3-0.9-0.3-1.4c0-0.9,0.2-1.6,0.7-2.1
		c0.5-0.5,1.1-0.9,1.8-1.2c0.7-0.3,1.5-0.4,2.3-0.5c0.8-0.1,1.5-0.1,2.2-0.1C125.7,23.1,126.5,23.1,126.5,23.1z M125.7,24.4
		c-0.4,0-0.9,0-1.5,0.1c-0.6,0-1.2,0.1-1.7,0.3c-0.6,0.2-1,0.4-1.4,0.7c-0.4,0.3-0.6,0.8-0.6,1.3c0,0.4,0.1,0.7,0.2,0.9
		c0.2,0.3,0.4,0.5,0.6,0.6c0.3,0.2,0.5,0.3,0.9,0.4c0.3,0.1,0.6,0.1,0.9,0.1c0.6,0,1.1-0.1,1.5-0.3c0.4-0.2,0.8-0.5,1.1-0.8
		c0.3-0.3,0.5-0.7,0.6-1.2c0.1-0.4,0.2-0.9,0.2-1.4v-0.8H125.7z"/>
	<path class="st11" d="M139.9,21.4c-0.3-0.4-0.7-0.8-1.1-1.1c-0.5-0.3-1-0.4-1.7-0.4c-0.7,0-1.2,0.1-1.8,0.3c-0.5,0.2-1,0.5-1.3,0.9
		c-0.4,0.4-0.6,0.9-0.8,1.4c-0.2,0.6-0.3,1.1-0.3,1.8c0,0.6,0.1,1.2,0.3,1.8c0.2,0.6,0.5,1,0.8,1.4s0.8,0.7,1.3,0.9s1.1,0.3,1.8,0.3
		c0.6,0,1.2-0.1,1.7-0.4c0.5-0.3,0.9-0.6,1.1-1.1l1.3,1c-0.6,0.7-1.2,1.1-1.9,1.5s-1.4,0.5-2.2,0.5c-0.9,0-1.7-0.1-2.5-0.4
		s-1.4-0.7-1.9-1.2c-0.5-0.5-0.9-1.2-1.2-1.9c-0.3-0.7-0.4-1.5-0.4-2.4c0-0.8,0.1-1.6,0.4-2.4c0.3-0.7,0.7-1.4,1.2-1.9
		c0.5-0.5,1.1-0.9,1.9-1.2c0.7-0.3,1.6-0.4,2.5-0.4c0.8,0,1.5,0.2,2.2,0.5s1.3,0.8,1.9,1.5L139.9,21.4z"/>
	<path class="st11" d="M151.5,21.4c-0.3-0.4-0.7-0.8-1.1-1.1c-0.5-0.3-1-0.4-1.7-0.4c-0.7,0-1.2,0.1-1.8,0.3c-0.5,0.2-1,0.5-1.3,0.9
		c-0.4,0.4-0.6,0.9-0.8,1.4c-0.2,0.6-0.3,1.1-0.3,1.8c0,0.6,0.1,1.2,0.3,1.8c0.2,0.6,0.5,1,0.8,1.4s0.8,0.7,1.3,0.9s1.1,0.3,1.8,0.3
		c0.6,0,1.2-0.1,1.7-0.4c0.5-0.3,0.9-0.6,1.1-1.1l1.3,1c-0.6,0.7-1.2,1.1-1.9,1.5s-1.4,0.5-2.2,0.5c-0.9,0-1.7-0.1-2.5-0.4
		s-1.4-0.7-1.9-1.2c-0.5-0.5-0.9-1.2-1.2-1.9c-0.3-0.7-0.4-1.5-0.4-2.4c0-0.8,0.1-1.6,0.4-2.4c0.3-0.7,0.7-1.4,1.2-1.9
		c0.5-0.5,1.1-0.9,1.9-1.2c0.7-0.3,1.6-0.4,2.5-0.4c0.8,0,1.5,0.2,2.2,0.5s1.3,0.8,1.9,1.5L151.5,21.4z"/>
	<path class="st11" d="M163,30c0-0.3-0.1-0.6-0.1-0.9c0-0.3,0-0.6,0-0.9h0c-0.2,0.3-0.4,0.6-0.7,0.8s-0.6,0.5-0.9,0.7
		c-0.3,0.2-0.7,0.3-1.1,0.4s-0.7,0.2-1.1,0.2c-1.4,0-2.5-0.4-3.2-1.1c-0.7-0.8-1-1.8-1-3.3v-7.1h1.6V25c0,0.6,0,1.2,0.1,1.7
		c0.1,0.5,0.3,0.9,0.5,1.2c0.2,0.3,0.5,0.6,0.9,0.7s0.9,0.3,1.5,0.3c0.1,0,0.3,0,0.7-0.1c0.4-0.1,0.8-0.2,1.2-0.5
		c0.4-0.3,0.8-0.7,1.1-1.3c0.3-0.6,0.5-1.4,0.5-2.4v-5.8h1.6v8.8c0,0.3,0,0.7,0,1.2c0,0.5,0.1,0.9,0.1,1.3C164.6,30,163,30,163,30z"
		/>
	<path class="st11" d="M168.4,22.3c0-0.5,0-1,0-1.5c0-0.5,0-1.2-0.1-2h1.6v2.1h0c0.1-0.3,0.3-0.6,0.5-0.9c0.2-0.3,0.5-0.5,0.8-0.8
		c0.3-0.2,0.6-0.4,1-0.5c0.4-0.1,0.8-0.2,1.3-0.2c0.4,0,0.8,0,1.2,0.1l-0.3,1.6c-0.2-0.1-0.5-0.1-0.9-0.1c-0.6,0-1.1,0.1-1.6,0.3
		s-0.8,0.5-1.1,0.9c-0.3,0.4-0.5,0.7-0.6,1.2c-0.1,0.4-0.2,0.8-0.2,1.2V30h-1.6V22.3z"/>
	<path class="st11" d="M183.4,23.1v-0.3c0-1.9-1-2.9-2.9-2.9c-1.3,0-2.5,0.4-3.4,1.3l-1-1.1c1.1-1.1,2.6-1.6,4.8-1.6
		c0.5,0,1.1,0.1,1.6,0.2c0.5,0.2,0.9,0.4,1.3,0.7c0.4,0.3,0.7,0.7,0.9,1.2c0.2,0.5,0.3,1.1,0.3,1.8v5c0,0.4,0,0.9,0.1,1.4
		c0,0.5,0.1,0.9,0.1,1.2h-1.5c0-0.3-0.1-0.6-0.1-0.9c0-0.3,0-0.6,0-0.9h0c-0.5,0.8-1,1.3-1.6,1.6c-0.6,0.3-1.4,0.5-2.3,0.5
		c-0.5,0-1-0.1-1.4-0.2c-0.5-0.1-0.9-0.3-1.2-0.6c-0.4-0.3-0.6-0.6-0.9-1c-0.2-0.4-0.3-0.9-0.3-1.4c0-0.9,0.2-1.6,0.7-2.1
		c0.5-0.5,1.1-0.9,1.8-1.2c0.7-0.3,1.5-0.4,2.3-0.5c0.8-0.1,1.5-0.1,2.2-0.1C182.6,23.1,183.4,23.1,183.4,23.1z M182.6,24.4
		c-0.4,0-0.9,0-1.5,0.1c-0.6,0-1.2,0.1-1.7,0.3c-0.6,0.2-1,0.4-1.4,0.7c-0.4,0.3-0.6,0.8-0.6,1.3c0,0.4,0.1,0.7,0.2,0.9
		c0.2,0.3,0.4,0.5,0.6,0.6c0.3,0.2,0.5,0.3,0.9,0.4c0.3,0.1,0.6,0.1,0.9,0.1c0.6,0,1.1-0.1,1.5-0.3c0.4-0.2,0.8-0.5,1.1-0.8
		c0.3-0.3,0.5-0.7,0.6-1.2c0.1-0.4,0.2-0.9,0.2-1.4v-0.8H182.6z"/>
	<path class="st11" d="M194.5,20.2h-3.2v6.6c0,0.4,0,0.8,0.1,1s0.2,0.5,0.3,0.6s0.3,0.2,0.5,0.3c0.2,0.1,0.4,0.1,0.7,0.1
		c0.3,0,0.6,0,0.8-0.1s0.6-0.2,0.8-0.3l0.1,1.5c-0.6,0.3-1.3,0.4-2.1,0.4c-0.3,0-0.6,0-0.9-0.1s-0.6-0.2-0.9-0.5
		c-0.3-0.2-0.5-0.5-0.7-0.9c-0.2-0.4-0.3-0.9-0.3-1.5v-7.1h-2.4v-1.4h2.4v-3.2h1.6v3.2h3.2V20.2z"/>
	<path class="st11" d="M197.7,24.8c0,0.6,0.2,1.1,0.4,1.6c0.2,0.5,0.5,0.9,0.9,1.3s0.8,0.6,1.3,0.9s1,0.3,1.6,0.3
		c0.8,0,1.6-0.2,2.2-0.6c0.6-0.4,1.1-0.8,1.4-1.4l1.2,1c-0.7,0.8-1.4,1.5-2.2,1.8c-0.8,0.4-1.7,0.6-2.6,0.6c-0.8,0-1.6-0.1-2.3-0.4
		c-0.7-0.3-1.3-0.7-1.8-1.2c-0.5-0.5-0.9-1.2-1.2-1.9c-0.3-0.7-0.4-1.5-0.4-2.4c0-0.8,0.1-1.6,0.4-2.4c0.3-0.7,0.7-1.3,1.2-1.9
		c0.5-0.5,1.1-0.9,1.8-1.2c0.7-0.3,1.4-0.4,2.2-0.4c0.8,0,1.6,0.2,2.3,0.5c0.7,0.3,1.2,0.7,1.7,1.2s0.8,1.1,1,1.8
		c0.2,0.7,0.4,1.4,0.4,2.2v0.7L197.7,24.8L197.7,24.8z M205.4,23.5c0-1.1-0.3-1.9-1-2.6c-0.6-0.7-1.5-1-2.7-1c-0.5,0-1,0.1-1.5,0.3
		s-0.9,0.5-1.3,0.8c-0.4,0.3-0.6,0.7-0.9,1.2c-0.2,0.4-0.3,0.9-0.3,1.3C197.8,23.5,205.4,23.5,205.4,23.5z"/>
</g>
<g>
	<path class="st11" d="M273.8,27.3c-0.3,0.4-0.6,0.8-1.1,1.2c-0.4,0.4-0.9,0.7-1.5,1c-0.5,0.3-1.1,0.5-1.8,0.7
		c-0.6,0.2-1.3,0.2-2,0.2c-1.3,0-2.4-0.2-3.5-0.7s-2-1.1-2.8-1.9c-0.8-0.8-1.4-1.7-1.9-2.8c-0.4-1.1-0.7-2.3-0.7-3.6
		s0.2-2.5,0.7-3.6c0.4-1.1,1.1-2,1.9-2.8c0.8-0.8,1.7-1.4,2.8-1.9c1.1-0.4,2.3-0.7,3.5-0.7c1.1,0,2.1,0.2,3.2,0.6
		c1.1,0.4,2,1.1,2.7,2.1l-1.5,1.1c-0.2-0.3-0.4-0.5-0.7-0.8c-0.3-0.3-0.7-0.5-1-0.7c-0.4-0.2-0.8-0.4-1.3-0.5
		c-0.4-0.1-0.9-0.2-1.3-0.2c-1.1,0-2.1,0.2-2.9,0.6c-0.9,0.4-1.6,0.9-2.2,1.6c-0.6,0.7-1.1,1.5-1.4,2.3s-0.5,1.8-0.5,2.8
		c0,1,0.2,1.9,0.5,2.8c0.3,0.9,0.8,1.7,1.4,2.3c0.6,0.7,1.3,1.2,2.2,1.6c0.9,0.4,1.8,0.6,2.9,0.6c0.4,0,0.9,0,1.3-0.1
		s0.9-0.2,1.3-0.4c0.4-0.2,0.8-0.5,1.2-0.8c0.4-0.3,0.7-0.7,1-1.2L273.8,27.3z"/>
	<path class="st11" d="M280.3,28.1l3.4-9.3h1.9l-5.6,14.2c-0.3,0.9-0.8,1.6-1.3,2.1c-0.5,0.5-1.3,0.8-2.2,0.8c-0.2,0-0.5,0-0.7,0
		s-0.5-0.1-0.7-0.1l0.2-1.5c0.3,0.2,0.7,0.3,1.2,0.3c0.6,0,1-0.2,1.3-0.5c0.3-0.4,0.6-0.8,0.8-1.5l0.8-2.2l-4.6-11.4h2L280.3,28.1z"
		/>
	<path class="st11" d="M295.9,21.4c-0.3-0.4-0.7-0.8-1.1-1.1c-0.5-0.3-1-0.4-1.7-0.4c-0.7,0-1.2,0.1-1.8,0.3c-0.5,0.2-1,0.5-1.3,0.9
		c-0.4,0.4-0.6,0.9-0.8,1.4c-0.2,0.6-0.3,1.1-0.3,1.8c0,0.6,0.1,1.2,0.3,1.8c0.2,0.6,0.5,1,0.8,1.4s0.8,0.7,1.3,0.9s1.1,0.3,1.8,0.3
		c0.6,0,1.2-0.1,1.7-0.4c0.5-0.3,0.9-0.6,1.1-1.1l1.3,1c-0.6,0.7-1.2,1.1-1.9,1.5c-0.7,0.3-1.4,0.5-2.2,0.5c-0.9,0-1.7-0.1-2.5-0.4
		s-1.4-0.7-1.9-1.2c-0.5-0.5-0.9-1.2-1.2-1.9c-0.3-0.7-0.4-1.5-0.4-2.4c0-0.8,0.1-1.6,0.4-2.4c0.3-0.7,0.7-1.4,1.2-1.9
		c0.5-0.5,1.1-0.9,1.9-1.2c0.7-0.3,1.6-0.4,2.5-0.4c0.8,0,1.5,0.2,2.2,0.5c0.7,0.3,1.3,0.8,1.9,1.5L295.9,21.4z"/>
	<path class="st11" d="M301.2,30h-1.6V11.9h1.6V30z"/>
	<path class="st11" d="M306.2,24.8c0,0.6,0.2,1.1,0.4,1.6c0.2,0.5,0.5,0.9,0.9,1.3c0.4,0.4,0.8,0.6,1.3,0.9s1,0.3,1.6,0.3
		c0.8,0,1.6-0.2,2.2-0.6c0.6-0.4,1.1-0.8,1.4-1.4l1.2,1c-0.7,0.8-1.4,1.5-2.2,1.8c-0.8,0.4-1.7,0.6-2.6,0.6c-0.8,0-1.6-0.1-2.3-0.4
		c-0.7-0.3-1.3-0.7-1.8-1.2c-0.5-0.5-0.9-1.2-1.2-1.9c-0.3-0.7-0.4-1.5-0.4-2.4c0-0.8,0.1-1.6,0.4-2.4c0.3-0.7,0.7-1.3,1.2-1.9
		c0.5-0.5,1.1-0.9,1.8-1.2c0.7-0.3,1.4-0.4,2.2-0.4c0.8,0,1.6,0.2,2.3,0.5c0.7,0.3,1.2,0.7,1.7,1.2c0.5,0.5,0.8,1.1,1,1.8
		c0.2,0.7,0.4,1.4,0.4,2.2v0.7L306.2,24.8L306.2,24.8z M313.8,23.5c0-1.1-0.3-1.9-1-2.6c-0.6-0.7-1.5-1-2.7-1c-0.5,0-1,0.1-1.5,0.3
		c-0.5,0.2-0.9,0.5-1.3,0.8c-0.4,0.3-0.6,0.7-0.9,1.2c-0.2,0.4-0.3,0.9-0.3,1.3C306.2,23.5,313.8,23.5,313.8,23.5z"/>
	<path class="st11" d="M323.8,25h-6.2v-1.6h6.2V25z"/>
	<path class="st11" d="M334.6,21.4c-0.3-0.4-0.7-0.8-1.1-1.1s-1-0.4-1.7-0.4c-0.7,0-1.2,0.1-1.8,0.3c-0.5,0.2-1,0.5-1.3,0.9
		c-0.4,0.4-0.6,0.9-0.8,1.4c-0.2,0.6-0.3,1.1-0.3,1.8c0,0.6,0.1,1.2,0.3,1.8c0.2,0.6,0.5,1,0.8,1.4s0.8,0.7,1.3,0.9s1.1,0.3,1.8,0.3
		c0.6,0,1.2-0.1,1.7-0.4s0.9-0.6,1.1-1.1l1.3,1c-0.6,0.7-1.2,1.1-1.9,1.5c-0.7,0.3-1.4,0.5-2.2,0.5c-0.9,0-1.7-0.1-2.5-0.4
		s-1.4-0.7-1.9-1.2c-0.5-0.5-0.9-1.2-1.2-1.9c-0.3-0.7-0.4-1.5-0.4-2.4c0-0.8,0.1-1.6,0.4-2.4c0.3-0.7,0.7-1.4,1.2-1.9
		c0.5-0.5,1.1-0.9,1.9-1.2c0.7-0.3,1.6-0.4,2.5-0.4c0.8,0,1.5,0.2,2.2,0.5c0.7,0.3,1.3,0.8,1.9,1.5L334.6,21.4z"/>
	<path class="st11" d="M349.3,24.4c0,0.8-0.1,1.6-0.4,2.4c-0.3,0.7-0.7,1.3-1.2,1.9c-0.5,0.5-1.2,0.9-1.9,1.2
		c-0.7,0.3-1.5,0.4-2.4,0.4c-0.9,0-1.7-0.1-2.4-0.4c-0.7-0.3-1.4-0.7-1.9-1.2c-0.5-0.5-0.9-1.2-1.2-1.9c-0.3-0.7-0.4-1.5-0.4-2.4
		c0-0.8,0.1-1.6,0.4-2.4c0.3-0.7,0.7-1.3,1.2-1.9c0.5-0.5,1.2-0.9,1.9-1.2c0.7-0.3,1.5-0.4,2.4-0.4c0.9,0,1.7,0.1,2.4,0.4
		c0.7,0.3,1.4,0.7,1.9,1.2c0.5,0.5,0.9,1.2,1.2,1.9C349.2,22.8,349.3,23.5,349.3,24.4z M347.6,24.4c0-0.6-0.1-1.2-0.3-1.8
		c-0.2-0.5-0.5-1-0.9-1.4c-0.4-0.4-0.8-0.7-1.3-0.9c-0.5-0.2-1.1-0.3-1.8-0.3s-1.2,0.1-1.8,0.3s-1,0.5-1.3,0.9
		c-0.4,0.4-0.6,0.9-0.8,1.4c-0.2,0.5-0.3,1.1-0.3,1.8s0.1,1.2,0.3,1.8c0.2,0.5,0.5,1,0.8,1.4c0.4,0.4,0.8,0.7,1.3,0.9
		s1.1,0.3,1.8,0.3s1.2-0.1,1.8-0.3c0.5-0.2,1-0.5,1.3-0.9c0.4-0.4,0.7-0.9,0.9-1.4S347.6,25,347.6,24.4z"/>
	<path class="st11" d="M360.3,30c0-0.3-0.1-0.6-0.1-0.9c0-0.3,0-0.6,0-0.9h0c-0.2,0.3-0.4,0.6-0.7,0.8s-0.6,0.5-0.9,0.7
		s-0.7,0.3-1.1,0.4c-0.4,0.1-0.7,0.2-1.1,0.2c-1.4,0-2.5-0.4-3.2-1.1c-0.7-0.8-1-1.8-1-3.3v-7.1h1.6V25c0,0.6,0,1.2,0.1,1.7
		s0.3,0.9,0.5,1.2c0.2,0.3,0.5,0.6,0.9,0.7s0.9,0.3,1.5,0.3c0.1,0,0.3,0,0.7-0.1c0.4-0.1,0.8-0.2,1.2-0.5s0.8-0.7,1.1-1.3
		c0.3-0.6,0.5-1.4,0.5-2.4v-5.8h1.6v8.8c0,0.3,0,0.7,0,1.2c0,0.5,0.1,0.9,0.1,1.3C361.9,30,360.3,30,360.3,30z"/>
	<path class="st11" d="M367,18.8c0,0.3,0.1,0.6,0.1,0.9c0,0.3,0,0.6,0,0.9h0c0.2-0.3,0.4-0.6,0.7-0.8c0.3-0.3,0.6-0.5,0.9-0.7
		c0.3-0.2,0.7-0.3,1.1-0.4c0.4-0.1,0.7-0.2,1.1-0.2c1.4,0,2.5,0.4,3.2,1.1c0.7,0.8,1,1.8,1,3.3V30h-1.6v-6.2c0-1.2-0.2-2.2-0.6-2.9
		c-0.4-0.7-1.2-1-2.4-1c-0.1,0-0.3,0-0.7,0.1s-0.8,0.2-1.2,0.5s-0.8,0.7-1.1,1.3c-0.3,0.6-0.5,1.4-0.5,2.4V30h-1.6v-8.8
		c0-0.3,0-0.7,0-1.2c0-0.5-0.1-0.9-0.1-1.3H367z"/>
	<path class="st11" d="M384.7,20.2h-3.2v6.6c0,0.4,0,0.8,0.1,1s0.2,0.5,0.3,0.6c0.1,0.1,0.3,0.2,0.5,0.3c0.2,0.1,0.4,0.1,0.7,0.1
		c0.3,0,0.6,0,0.8-0.1s0.6-0.2,0.8-0.3l0.1,1.5c-0.6,0.3-1.3,0.4-2.1,0.4c-0.3,0-0.6,0-0.9-0.1s-0.6-0.2-0.9-0.5
		c-0.3-0.2-0.5-0.5-0.7-0.9c-0.2-0.4-0.3-0.9-0.3-1.5v-7.1h-2.4v-1.4h2.4v-3.2h1.6v3.2h3.2V20.2z"/>
	<path class="st11" d="M400.7,23.1v-0.3c0-1.9-1-2.9-2.9-2.9c-1.3,0-2.5,0.4-3.4,1.3l-1-1.1c1.1-1.1,2.6-1.6,4.8-1.6
		c0.5,0,1.1,0.1,1.6,0.2c0.5,0.2,0.9,0.4,1.3,0.7c0.4,0.3,0.7,0.7,0.9,1.2c0.2,0.5,0.3,1.1,0.3,1.8v5c0,0.4,0,0.9,0.1,1.4
		c0,0.5,0.1,0.9,0.1,1.2H401c0-0.3-0.1-0.6-0.1-0.9c0-0.3,0-0.6,0-0.9h0c-0.5,0.8-1,1.3-1.6,1.6c-0.6,0.3-1.4,0.5-2.3,0.5
		c-0.5,0-1-0.1-1.4-0.2c-0.5-0.1-0.9-0.3-1.2-0.6c-0.4-0.3-0.6-0.6-0.9-1c-0.2-0.4-0.3-0.9-0.3-1.4c0-0.9,0.2-1.6,0.7-2.1
		s1.1-0.9,1.8-1.2c0.7-0.3,1.5-0.4,2.3-0.5c0.8-0.1,1.5-0.1,2.2-0.1C399.9,23.1,400.7,23.1,400.7,23.1z M399.9,24.4
		c-0.4,0-0.9,0-1.5,0.1c-0.6,0-1.2,0.1-1.7,0.3c-0.6,0.2-1,0.4-1.4,0.7c-0.4,0.3-0.6,0.8-0.6,1.3c0,0.4,0.1,0.7,0.2,0.9
		c0.2,0.3,0.4,0.5,0.6,0.6s0.5,0.3,0.9,0.4c0.3,0.1,0.6,0.1,0.9,0.1c0.6,0,1.1-0.1,1.5-0.3c0.4-0.2,0.8-0.5,1.1-0.8
		c0.3-0.3,0.5-0.7,0.6-1.2c0.1-0.4,0.2-0.9,0.2-1.4v-0.8H399.9z"/>
	<path class="st11" d="M414.2,21.4c-0.3-0.4-0.7-0.8-1.1-1.1s-1-0.4-1.7-0.4c-0.7,0-1.2,0.1-1.8,0.3c-0.5,0.2-1,0.5-1.3,0.9
		c-0.4,0.4-0.6,0.9-0.8,1.4c-0.2,0.6-0.3,1.1-0.3,1.8c0,0.6,0.1,1.2,0.3,1.8c0.2,0.6,0.5,1,0.8,1.4c0.4,0.4,0.8,0.7,1.3,0.9
		c0.5,0.2,1.1,0.3,1.8,0.3c0.6,0,1.2-0.1,1.7-0.4s0.9-0.6,1.1-1.1l1.3,1c-0.6,0.7-1.2,1.1-1.9,1.5s-1.4,0.5-2.2,0.5
		c-0.9,0-1.7-0.1-2.5-0.4c-0.7-0.3-1.4-0.7-1.9-1.2c-0.5-0.5-0.9-1.2-1.2-1.9s-0.4-1.5-0.4-2.4c0-0.8,0.1-1.6,0.4-2.4
		s0.7-1.4,1.2-1.9c0.5-0.5,1.1-0.9,1.9-1.2c0.7-0.3,1.6-0.4,2.5-0.4c0.8,0,1.5,0.2,2.2,0.5s1.3,0.8,1.9,1.5L414.2,21.4z"/>
	<path class="st11" d="M425.7,21.4c-0.3-0.4-0.7-0.8-1.1-1.1c-0.5-0.3-1-0.4-1.7-0.4c-0.7,0-1.2,0.1-1.8,0.3c-0.5,0.2-1,0.5-1.3,0.9
		c-0.4,0.4-0.6,0.9-0.8,1.4c-0.2,0.6-0.3,1.1-0.3,1.8c0,0.6,0.1,1.2,0.3,1.8c0.2,0.6,0.5,1,0.8,1.4s0.8,0.7,1.3,0.9s1.1,0.3,1.8,0.3
		c0.6,0,1.2-0.1,1.7-0.4c0.5-0.3,0.9-0.6,1.1-1.1l1.3,1c-0.6,0.7-1.2,1.1-1.9,1.5c-0.7,0.3-1.4,0.5-2.2,0.5c-0.9,0-1.7-0.1-2.5-0.4
		s-1.4-0.7-1.9-1.2c-0.5-0.5-0.9-1.2-1.2-1.9c-0.3-0.7-0.4-1.5-0.4-2.4c0-0.8,0.1-1.6,0.4-2.4c0.3-0.7,0.7-1.4,1.2-1.9
		c0.5-0.5,1.1-0.9,1.9-1.2c0.7-0.3,1.6-0.4,2.5-0.4c0.8,0,1.5,0.2,2.2,0.5c0.7,0.3,1.3,0.8,1.9,1.5L425.7,21.4z"/>
	<path class="st11" d="M437.2,30c0-0.3-0.1-0.6-0.1-0.9c0-0.3,0-0.6,0-0.9h0c-0.2,0.3-0.4,0.6-0.7,0.8c-0.3,0.3-0.6,0.5-0.9,0.7
		s-0.7,0.3-1.1,0.4s-0.7,0.2-1.1,0.2c-1.4,0-2.5-0.4-3.2-1.1c-0.7-0.8-1-1.8-1-3.3v-7.1h1.6V25c0,0.6,0,1.2,0.1,1.7
		c0.1,0.5,0.3,0.9,0.5,1.2c0.2,0.3,0.5,0.6,0.9,0.7c0.4,0.2,0.9,0.3,1.5,0.3c0.1,0,0.3,0,0.7-0.1c0.4-0.1,0.8-0.2,1.2-0.5
		c0.4-0.3,0.8-0.7,1.1-1.3c0.3-0.6,0.5-1.4,0.5-2.4v-5.8h1.6v8.8c0,0.3,0,0.7,0,1.2c0,0.5,0.1,0.9,0.1,1.3
		C438.9,30,437.2,30,437.2,30z"/>
	<path class="st11" d="M442.6,22.3c0-0.5,0-1,0-1.5c0-0.5,0-1.2-0.1-2h1.6v2.1h0c0.1-0.3,0.3-0.6,0.5-0.9c0.2-0.3,0.5-0.5,0.8-0.8
		c0.3-0.2,0.6-0.4,1-0.5c0.4-0.1,0.8-0.2,1.3-0.2c0.4,0,0.8,0,1.2,0.1l-0.3,1.6c-0.2-0.1-0.5-0.1-0.9-0.1c-0.6,0-1.1,0.1-1.6,0.3
		s-0.8,0.5-1.1,0.9c-0.3,0.4-0.5,0.7-0.6,1.2c-0.1,0.4-0.2,0.8-0.2,1.2V30h-1.6V22.3z"/>
	<path class="st11" d="M457.6,23.1v-0.3c0-1.9-1-2.9-2.9-2.9c-1.3,0-2.5,0.4-3.4,1.3l-1-1.1c1.1-1.1,2.6-1.6,4.8-1.6
		c0.5,0,1.1,0.1,1.6,0.2c0.5,0.2,0.9,0.4,1.3,0.7c0.4,0.3,0.7,0.7,0.9,1.2c0.2,0.5,0.3,1.1,0.3,1.8v5c0,0.4,0,0.9,0.1,1.4
		c0,0.5,0.1,0.9,0.1,1.2h-1.5c0-0.3-0.1-0.6-0.1-0.9c0-0.3,0-0.6,0-0.9h0c-0.5,0.8-1,1.3-1.6,1.6c-0.6,0.3-1.4,0.5-2.3,0.5
		c-0.5,0-1-0.1-1.4-0.2c-0.5-0.1-0.9-0.3-1.2-0.6c-0.4-0.3-0.6-0.6-0.9-1c-0.2-0.4-0.3-0.9-0.3-1.4c0-0.9,0.2-1.6,0.7-2.1
		c0.5-0.5,1.1-0.9,1.8-1.2c0.7-0.3,1.5-0.4,2.3-0.5c0.8-0.1,1.5-0.1,2.2-0.1C456.8,23.1,457.6,23.1,457.6,23.1z M456.8,24.4
		c-0.4,0-0.9,0-1.5,0.1c-0.6,0-1.2,0.1-1.7,0.3c-0.6,0.2-1,0.4-1.4,0.7c-0.4,0.3-0.6,0.8-0.6,1.3c0,0.4,0.1,0.7,0.2,0.9
		s0.4,0.5,0.6,0.6s0.5,0.3,0.9,0.4c0.3,0.1,0.6,0.1,0.9,0.1c0.6,0,1.1-0.1,1.5-0.3s0.8-0.5,1.1-0.8c0.3-0.3,0.5-0.7,0.6-1.2
		c0.1-0.4,0.2-0.9,0.2-1.4v-0.8H456.8z"/>
	<path class="st11" d="M468.7,20.2h-3.2v6.6c0,0.4,0,0.8,0.1,1s0.2,0.5,0.3,0.6c0.1,0.1,0.3,0.2,0.5,0.3s0.4,0.1,0.7,0.1
		c0.3,0,0.6,0,0.8-0.1c0.3-0.1,0.6-0.2,0.8-0.3l0.1,1.5c-0.6,0.3-1.3,0.4-2.1,0.4c-0.3,0-0.6,0-0.9-0.1s-0.6-0.2-0.9-0.5
		c-0.3-0.2-0.5-0.5-0.7-0.9c-0.2-0.4-0.3-0.9-0.3-1.5v-7.1h-2.4v-1.4h2.4v-3.2h1.6v3.2h3.2V20.2z"/>
	<path class="st11" d="M472,24.8c0,0.6,0.2,1.1,0.4,1.6c0.2,0.5,0.5,0.9,0.9,1.3s0.8,0.6,1.3,0.9c0.5,0.2,1,0.3,1.6,0.3
		c0.8,0,1.6-0.2,2.2-0.6c0.6-0.4,1.1-0.8,1.4-1.4l1.2,1c-0.7,0.8-1.4,1.5-2.2,1.8c-0.8,0.4-1.7,0.6-2.6,0.6c-0.8,0-1.6-0.1-2.3-0.4
		c-0.7-0.3-1.3-0.7-1.8-1.2c-0.5-0.5-0.9-1.2-1.2-1.9c-0.3-0.7-0.4-1.5-0.4-2.4c0-0.8,0.1-1.6,0.4-2.4c0.3-0.7,0.7-1.3,1.2-1.9
		c0.5-0.5,1.1-0.9,1.8-1.2c0.7-0.3,1.4-0.4,2.2-0.4c0.8,0,1.6,0.2,2.3,0.5c0.7,0.3,1.2,0.7,1.7,1.2s0.8,1.1,1,1.8
		c0.2,0.7,0.4,1.4,0.4,2.2v0.7L472,24.8L472,24.8z M479.6,23.5c0-1.1-0.3-1.9-1-2.6c-0.6-0.7-1.5-1-2.7-1c-0.5,0-1,0.1-1.5,0.3
		c-0.5,0.2-0.9,0.5-1.3,0.8c-0.4,0.3-0.6,0.7-0.9,1.2c-0.2,0.4-0.3,0.9-0.3,1.3C472,23.5,479.6,23.5,479.6,23.5z"/>
</g>
<g>
	<text transform="matrix(1 0 0 1 42.3243 65)" class="st11 st12 st13">CPU</text>
	<g>
		<text transform="matrix(1 0 0 1 96.6553 65)" class="st11 st12 st13">Memory</text>
	</g>
	<g>
		<text transform="matrix(1 0 0 1 181.6582 65)" class="st11 st12 st13">GPU</text>
	</g>
</g>
<g>
	<text transform="matrix(1 0 0 1 282.3243 65)" class="st11 st12 st13">CPU</text>
	<g>
		<text transform="matrix(1 0 0 1 336.6553 65)" class="st11 st12 st13">Memory</text>
	</g>
	<g>
		<text transform="matrix(1 0 0 1 421.6582 65)" class="st11 st12 st13">GPU</text>
	</g>
</g>
</svg>
